<mxfile host="Electron" agent="Mozilla/5.0 (Macintosh; Intel Mac OS X 10_15_7) AppleWebKit/537.36 (KHTML, like Gecko) draw.io/24.7.8 Chrome/128.0.6613.36 Electron/32.0.1 Safari/537.36" version="24.7.8">
  <diagram name="Page-1" id="LfVO9tP1I65s95D9D5qD">
    <mxGraphModel dx="2978" dy="1788" grid="0" gridSize="10" guides="1" tooltips="1" connect="1" arrows="1" fold="1" page="0" pageScale="1" pageWidth="850" pageHeight="1100" math="0" shadow="0">
      <root>
        <mxCell id="0" />
        <mxCell id="1" parent="0" />
        <mxCell id="0xb4To-1j9kdvUEWT-h--1" value="OS" style="rounded=1;whiteSpace=wrap;html=1;sketch=1;curveFitting=1;jiggle=2;fontFamily=Gloria Hallelujah;fontSource=https%3A%2F%2Ffonts.googleapis.com%2Fcss%3Ffamily%3DGloria%2BHallelujah;fontSize=16;arcSize=12;verticalAlign=bottom;fillColor=#fff2cc;gradientColor=#ffd966;strokeColor=#d6b656;" parent="1" vertex="1">
          <mxGeometry x="140" y="60" width="170" height="170" as="geometry" />
        </mxCell>
        <mxCell id="yu8ccsRY1RRguhGUHLW1-3" value="APP" style="rounded=1;whiteSpace=wrap;html=1;sketch=1;curveFitting=1;jiggle=2;fontFamily=Gloria Hallelujah;fontSource=https%3A%2F%2Ffonts.googleapis.com%2Fcss%3Ffamily%3DGloria%2BHallelujah;fontSize=16;arcSize=12;verticalAlign=middle;fillColor=#f8cecc;gradientColor=#ea6b66;strokeColor=#b85450;" parent="1" vertex="1">
          <mxGeometry x="160" y="80" width="70" height="40" as="geometry" />
        </mxCell>
        <mxCell id="yu8ccsRY1RRguhGUHLW1-11" value="DNS" style="rounded=1;whiteSpace=wrap;html=1;sketch=1;curveFitting=1;jiggle=2;fontFamily=Gloria Hallelujah;fontSource=https%3A%2F%2Ffonts.googleapis.com%2Fcss%3Ffamily%3DGloria%2BHallelujah;fontSize=16;arcSize=12;verticalAlign=middle;" parent="1" vertex="1">
          <mxGeometry x="350" y="60" width="90" height="60" as="geometry" />
        </mxCell>
        <mxCell id="yu8ccsRY1RRguhGUHLW1-12" value="LDAP / AD" style="rounded=1;whiteSpace=wrap;html=1;sketch=1;curveFitting=1;jiggle=2;fontFamily=Gloria Hallelujah;fontSource=https%3A%2F%2Ffonts.googleapis.com%2Fcss%3Ffamily%3DGloria%2BHallelujah;fontSize=16;arcSize=12;verticalAlign=middle;" parent="1" vertex="1">
          <mxGeometry x="350" y="230" width="90" height="60" as="geometry" />
        </mxCell>
        <mxCell id="yu8ccsRY1RRguhGUHLW1-16" value="APP" style="rounded=1;whiteSpace=wrap;html=1;sketch=1;curveFitting=1;jiggle=2;fontFamily=Gloria Hallelujah;fontSource=https%3A%2F%2Ffonts.googleapis.com%2Fcss%3Ffamily%3DGloria%2BHallelujah;fontSize=16;arcSize=12;verticalAlign=middle;fillColor=#f8cecc;gradientColor=#ea6b66;strokeColor=#b85450;" parent="1" vertex="1">
          <mxGeometry x="170" y="90" width="70" height="40" as="geometry" />
        </mxCell>
        <mxCell id="yu8ccsRY1RRguhGUHLW1-17" value="APP" style="rounded=1;whiteSpace=wrap;html=1;sketch=1;curveFitting=1;jiggle=2;fontFamily=Gloria Hallelujah;fontSource=https%3A%2F%2Ffonts.googleapis.com%2Fcss%3Ffamily%3DGloria%2BHallelujah;fontSize=16;arcSize=12;verticalAlign=middle;fillColor=#f8cecc;gradientColor=#ea6b66;strokeColor=#b85450;" parent="1" vertex="1">
          <mxGeometry x="180" y="100" width="70" height="40" as="geometry" />
        </mxCell>
        <mxCell id="yu8ccsRY1RRguhGUHLW1-18" value="APP" style="rounded=1;whiteSpace=wrap;html=1;sketch=1;curveFitting=1;jiggle=2;fontFamily=Gloria Hallelujah;fontSource=https%3A%2F%2Ffonts.googleapis.com%2Fcss%3Ffamily%3DGloria%2BHallelujah;fontSize=16;arcSize=12;verticalAlign=middle;fillColor=#f8cecc;gradientColor=#ea6b66;strokeColor=#b85450;" parent="1" vertex="1">
          <mxGeometry x="190" y="110" width="70" height="40" as="geometry" />
        </mxCell>
        <mxCell id="yu8ccsRY1RRguhGUHLW1-19" value="OS" style="rounded=1;whiteSpace=wrap;html=1;sketch=1;curveFitting=1;jiggle=2;fontFamily=Gloria Hallelujah;fontSource=https%3A%2F%2Ffonts.googleapis.com%2Fcss%3Ffamily%3DGloria%2BHallelujah;fontSize=16;arcSize=12;verticalAlign=bottom;" parent="1" vertex="1">
          <mxGeometry x="840" y="-80" width="140" height="140" as="geometry" />
        </mxCell>
        <mxCell id="yu8ccsRY1RRguhGUHLW1-20" value="APP" style="rounded=1;whiteSpace=wrap;html=1;sketch=1;curveFitting=1;jiggle=2;fontFamily=Gloria Hallelujah;fontSource=https%3A%2F%2Ffonts.googleapis.com%2Fcss%3Ffamily%3DGloria%2BHallelujah;fontSize=16;arcSize=12;verticalAlign=middle;" parent="1" vertex="1">
          <mxGeometry x="860" y="-60" width="70" height="40" as="geometry" />
        </mxCell>
        <mxCell id="yu8ccsRY1RRguhGUHLW1-21" value="DNS" style="rounded=1;whiteSpace=wrap;html=1;sketch=1;curveFitting=1;jiggle=2;fontFamily=Gloria Hallelujah;fontSource=https%3A%2F%2Ffonts.googleapis.com%2Fcss%3Ffamily%3DGloria%2BHallelujah;fontSize=16;arcSize=12;verticalAlign=middle;" parent="1" vertex="1">
          <mxGeometry x="1030" y="30" width="90" height="60" as="geometry" />
        </mxCell>
        <mxCell id="yu8ccsRY1RRguhGUHLW1-22" value="LDAP / AD" style="rounded=1;whiteSpace=wrap;html=1;sketch=1;curveFitting=1;jiggle=2;fontFamily=Gloria Hallelujah;fontSource=https%3A%2F%2Ffonts.googleapis.com%2Fcss%3Ffamily%3DGloria%2BHallelujah;fontSize=16;arcSize=12;verticalAlign=middle;" parent="1" vertex="1">
          <mxGeometry x="1030" y="100" width="90" height="60" as="geometry" />
        </mxCell>
        <mxCell id="yu8ccsRY1RRguhGUHLW1-23" value="APP" style="rounded=1;whiteSpace=wrap;html=1;sketch=1;curveFitting=1;jiggle=2;fontFamily=Gloria Hallelujah;fontSource=https%3A%2F%2Ffonts.googleapis.com%2Fcss%3Ffamily%3DGloria%2BHallelujah;fontSize=16;arcSize=12;verticalAlign=middle;" parent="1" vertex="1">
          <mxGeometry x="870" y="-50" width="70" height="40" as="geometry" />
        </mxCell>
        <mxCell id="yu8ccsRY1RRguhGUHLW1-111" style="edgeStyle=orthogonalEdgeStyle;shape=connector;rounded=0;orthogonalLoop=1;jettySize=auto;html=1;exitX=0;exitY=0.5;exitDx=0;exitDy=0;entryX=0;entryY=0.5;entryDx=0;entryDy=0;strokeColor=default;strokeWidth=2;align=center;verticalAlign=middle;fontFamily=Gloria Hallelujah;fontSource=https%3A%2F%2Ffonts.googleapis.com%2Fcss%3Ffamily%3DGloria%2BHallelujah;fontSize=16;fontColor=default;fontStyle=0;labelBackgroundColor=default;endArrow=classic;flowAnimation=1;" parent="1" source="yu8ccsRY1RRguhGUHLW1-26" target="yu8ccsRY1RRguhGUHLW1-33" edge="1">
          <mxGeometry relative="1" as="geometry" />
        </mxCell>
        <mxCell id="yu8ccsRY1RRguhGUHLW1-26" value="Hypervisor" style="rounded=1;whiteSpace=wrap;html=1;sketch=1;curveFitting=1;jiggle=2;fontFamily=Gloria Hallelujah;fontSource=https%3A%2F%2Ffonts.googleapis.com%2Fcss%3Ffamily%3DGloria%2BHallelujah;fontSize=16;arcSize=24;verticalAlign=middle;fillColor=#fff2cc;gradientColor=#ffd966;strokeColor=#d6b656;" parent="1" vertex="1">
          <mxGeometry x="840" y="240" width="280" height="80" as="geometry" />
        </mxCell>
        <mxCell id="yu8ccsRY1RRguhGUHLW1-83" style="edgeStyle=orthogonalEdgeStyle;shape=connector;rounded=0;orthogonalLoop=1;jettySize=auto;html=1;exitX=0.5;exitY=0;exitDx=0;exitDy=0;strokeColor=default;strokeWidth=2;align=center;verticalAlign=middle;fontFamily=Gloria Hallelujah;fontSource=https%3A%2F%2Ffonts.googleapis.com%2Fcss%3Ffamily%3DGloria%2BHallelujah;fontSize=16;fontColor=default;fontStyle=0;labelBackgroundColor=default;endArrow=classic;flowAnimation=1;" parent="1" source="yu8ccsRY1RRguhGUHLW1-27" target="0xb4To-1j9kdvUEWT-h--1" edge="1">
          <mxGeometry relative="1" as="geometry" />
        </mxCell>
        <mxCell id="yu8ccsRY1RRguhGUHLW1-27" value="Bare Metal" style="rounded=1;whiteSpace=wrap;html=1;sketch=1;curveFitting=1;jiggle=2;fontFamily=Gloria Hallelujah;fontSource=https%3A%2F%2Ffonts.googleapis.com%2Fcss%3Ffamily%3DGloria%2BHallelujah;fontSize=16;arcSize=24;verticalAlign=middle;fillColor=#fff2cc;gradientColor=#ffd966;strokeColor=#d6b656;" parent="1" vertex="1">
          <mxGeometry x="140" y="270" width="170" height="80" as="geometry" />
        </mxCell>
        <mxCell id="yu8ccsRY1RRguhGUHLW1-28" value="Bare Metal" style="rounded=1;whiteSpace=wrap;html=1;sketch=1;curveFitting=1;jiggle=2;fontFamily=Gloria Hallelujah;fontSource=https%3A%2F%2Ffonts.googleapis.com%2Fcss%3Ffamily%3DGloria%2BHallelujah;fontSize=16;arcSize=24;verticalAlign=middle;" parent="1" vertex="1">
          <mxGeometry x="350" y="300" width="90" height="50" as="geometry" />
        </mxCell>
        <mxCell id="yu8ccsRY1RRguhGUHLW1-29" value="Bare Metal" style="rounded=1;whiteSpace=wrap;html=1;sketch=1;curveFitting=1;jiggle=2;fontFamily=Gloria Hallelujah;fontSource=https%3A%2F%2Ffonts.googleapis.com%2Fcss%3Ffamily%3DGloria%2BHallelujah;fontSize=16;arcSize=24;verticalAlign=middle;" parent="1" vertex="1">
          <mxGeometry x="350" y="130" width="90" height="50" as="geometry" />
        </mxCell>
        <mxCell id="yu8ccsRY1RRguhGUHLW1-117" style="edgeStyle=orthogonalEdgeStyle;shape=connector;rounded=0;orthogonalLoop=1;jettySize=auto;html=1;exitX=0;exitY=0.5;exitDx=0;exitDy=0;entryX=0;entryY=0.75;entryDx=0;entryDy=0;strokeColor=default;strokeWidth=2;align=center;verticalAlign=middle;fontFamily=Gloria Hallelujah;fontSource=https%3A%2F%2Ffonts.googleapis.com%2Fcss%3Ffamily%3DGloria%2BHallelujah;fontSize=16;fontColor=default;fontStyle=0;labelBackgroundColor=default;endArrow=classic;flowAnimation=1;" parent="1" source="yu8ccsRY1RRguhGUHLW1-30" target="yu8ccsRY1RRguhGUHLW1-26" edge="1">
          <mxGeometry relative="1" as="geometry" />
        </mxCell>
        <mxCell id="yu8ccsRY1RRguhGUHLW1-30" value="Bare Metal" style="rounded=1;whiteSpace=wrap;html=1;sketch=1;curveFitting=1;jiggle=2;fontFamily=Gloria Hallelujah;fontSource=https%3A%2F%2Ffonts.googleapis.com%2Fcss%3Ffamily%3DGloria%2BHallelujah;fontSize=16;arcSize=24;verticalAlign=middle;fillColor=#fff2cc;gradientColor=#ffd966;strokeColor=#d6b656;" parent="1" vertex="1">
          <mxGeometry x="840" y="340" width="280" height="80" as="geometry" />
        </mxCell>
        <mxCell id="yu8ccsRY1RRguhGUHLW1-32" style="edgeStyle=orthogonalEdgeStyle;rounded=0;orthogonalLoop=1;jettySize=auto;html=1;entryX=1;entryY=0.5;entryDx=0;entryDy=0;fontFamily=Gloria Hallelujah;fontSource=https%3A%2F%2Ffonts.googleapis.com%2Fcss%3Ffamily%3DGloria%2BHallelujah;fontSize=16;fontColor=default;fontStyle=0;flowAnimation=1;strokeWidth=2;" parent="1" source="yu8ccsRY1RRguhGUHLW1-31" target="yu8ccsRY1RRguhGUHLW1-26" edge="1">
          <mxGeometry relative="1" as="geometry" />
        </mxCell>
        <mxCell id="yu8ccsRY1RRguhGUHLW1-31" value="Hypervisor&lt;div&gt;Manager&lt;/div&gt;" style="rounded=1;whiteSpace=wrap;html=1;sketch=1;curveFitting=1;jiggle=2;fontFamily=Gloria Hallelujah;fontSource=https%3A%2F%2Ffonts.googleapis.com%2Fcss%3Ffamily%3DGloria%2BHallelujah;fontSize=16;arcSize=24;verticalAlign=middle;fillColor=#fff2cc;gradientColor=#ffd966;strokeColor=#d6b656;" parent="1" vertex="1">
          <mxGeometry x="1170" y="240" width="120" height="80" as="geometry" />
        </mxCell>
        <mxCell id="yu8ccsRY1RRguhGUHLW1-33" value="OS" style="rounded=1;whiteSpace=wrap;html=1;sketch=1;curveFitting=1;jiggle=2;fontFamily=Gloria Hallelujah;fontSource=https%3A%2F%2Ffonts.googleapis.com%2Fcss%3Ffamily%3DGloria%2BHallelujah;fontSize=16;arcSize=12;verticalAlign=bottom;fillColor=#fff2cc;gradientColor=#ffd966;strokeColor=#d6b656;" parent="1" vertex="1">
          <mxGeometry x="840" y="80" width="140" height="140" as="geometry" />
        </mxCell>
        <mxCell id="yu8ccsRY1RRguhGUHLW1-34" value="APP" style="rounded=1;whiteSpace=wrap;html=1;sketch=1;curveFitting=1;jiggle=2;fontFamily=Gloria Hallelujah;fontSource=https%3A%2F%2Ffonts.googleapis.com%2Fcss%3Ffamily%3DGloria%2BHallelujah;fontSize=16;arcSize=12;verticalAlign=middle;fillColor=#f8cecc;gradientColor=#ea6b66;strokeColor=#b85450;" parent="1" vertex="1">
          <mxGeometry x="860" y="100" width="70" height="40" as="geometry" />
        </mxCell>
        <mxCell id="yu8ccsRY1RRguhGUHLW1-35" value="APP" style="rounded=1;whiteSpace=wrap;html=1;sketch=1;curveFitting=1;jiggle=2;fontFamily=Gloria Hallelujah;fontSource=https%3A%2F%2Ffonts.googleapis.com%2Fcss%3Ffamily%3DGloria%2BHallelujah;fontSize=16;arcSize=12;verticalAlign=middle;fillColor=#f8cecc;gradientColor=#ea6b66;strokeColor=#b85450;" parent="1" vertex="1">
          <mxGeometry x="870" y="110" width="70" height="40" as="geometry" />
        </mxCell>
        <mxCell id="yu8ccsRY1RRguhGUHLW1-36" value="OS&lt;br&gt;(k8s node)" style="rounded=1;whiteSpace=wrap;html=1;sketch=1;curveFitting=1;jiggle=2;fontFamily=Gloria Hallelujah;fontSource=https%3A%2F%2Ffonts.googleapis.com%2Fcss%3Ffamily%3DGloria%2BHallelujah;fontSize=16;arcSize=12;verticalAlign=bottom;fillColor=#fff2cc;gradientColor=#ffd966;strokeColor=#d6b656;" parent="1" vertex="1">
          <mxGeometry x="110" y="590" width="140" height="430" as="geometry" />
        </mxCell>
        <mxCell id="yu8ccsRY1RRguhGUHLW1-38" value="DNS" style="rounded=1;whiteSpace=wrap;html=1;sketch=1;curveFitting=1;jiggle=2;fontFamily=Gloria Hallelujah;fontSource=https%3A%2F%2Ffonts.googleapis.com%2Fcss%3Ffamily%3DGloria%2BHallelujah;fontSize=16;arcSize=12;verticalAlign=middle;" parent="1" vertex="1">
          <mxGeometry x="460" y="610" width="90" height="60" as="geometry" />
        </mxCell>
        <mxCell id="yu8ccsRY1RRguhGUHLW1-39" value="LDAP / AD" style="rounded=1;whiteSpace=wrap;html=1;sketch=1;curveFitting=1;jiggle=2;fontFamily=Gloria Hallelujah;fontSource=https%3A%2F%2Ffonts.googleapis.com%2Fcss%3Ffamily%3DGloria%2BHallelujah;fontSize=16;arcSize=12;verticalAlign=middle;" parent="1" vertex="1">
          <mxGeometry x="460" y="680" width="90" height="60" as="geometry" />
        </mxCell>
        <mxCell id="yu8ccsRY1RRguhGUHLW1-119" style="edgeStyle=orthogonalEdgeStyle;shape=connector;rounded=0;orthogonalLoop=1;jettySize=auto;html=1;exitX=0;exitY=0.25;exitDx=0;exitDy=0;entryX=0;entryY=0.75;entryDx=0;entryDy=0;strokeColor=default;strokeWidth=2;align=center;verticalAlign=middle;fontFamily=Gloria Hallelujah;fontSource=https%3A%2F%2Ffonts.googleapis.com%2Fcss%3Ffamily%3DGloria%2BHallelujah;fontSize=16;fontColor=default;fontStyle=0;labelBackgroundColor=default;endArrow=classic;flowAnimation=1;" parent="1" source="yu8ccsRY1RRguhGUHLW1-41" target="yu8ccsRY1RRguhGUHLW1-36" edge="1">
          <mxGeometry relative="1" as="geometry" />
        </mxCell>
        <mxCell id="yu8ccsRY1RRguhGUHLW1-41" value="Hypervisor" style="rounded=1;whiteSpace=wrap;html=1;sketch=1;curveFitting=1;jiggle=2;fontFamily=Gloria Hallelujah;fontSource=https%3A%2F%2Ffonts.googleapis.com%2Fcss%3Ffamily%3DGloria%2BHallelujah;fontSize=16;arcSize=24;verticalAlign=middle;fillColor=#fff2cc;gradientColor=#ffd966;strokeColor=#d6b656;" parent="1" vertex="1">
          <mxGeometry x="110" y="1050" width="280" height="80" as="geometry" />
        </mxCell>
        <mxCell id="yu8ccsRY1RRguhGUHLW1-118" style="edgeStyle=orthogonalEdgeStyle;shape=connector;rounded=0;orthogonalLoop=1;jettySize=auto;html=1;exitX=0;exitY=0.5;exitDx=0;exitDy=0;entryX=0;entryY=0.75;entryDx=0;entryDy=0;strokeColor=default;strokeWidth=2;align=center;verticalAlign=middle;fontFamily=Gloria Hallelujah;fontSource=https%3A%2F%2Ffonts.googleapis.com%2Fcss%3Ffamily%3DGloria%2BHallelujah;fontSize=16;fontColor=default;fontStyle=0;labelBackgroundColor=default;endArrow=classic;flowAnimation=1;" parent="1" source="yu8ccsRY1RRguhGUHLW1-42" target="yu8ccsRY1RRguhGUHLW1-41" edge="1">
          <mxGeometry relative="1" as="geometry" />
        </mxCell>
        <mxCell id="yu8ccsRY1RRguhGUHLW1-42" value="Bare Metal" style="rounded=1;whiteSpace=wrap;html=1;sketch=1;curveFitting=1;jiggle=2;fontFamily=Gloria Hallelujah;fontSource=https%3A%2F%2Ffonts.googleapis.com%2Fcss%3Ffamily%3DGloria%2BHallelujah;fontSize=16;arcSize=24;verticalAlign=middle;fillColor=#fff2cc;gradientColor=#ffd966;strokeColor=#d6b656;" parent="1" vertex="1">
          <mxGeometry x="110" y="1150" width="280" height="80" as="geometry" />
        </mxCell>
        <mxCell id="yu8ccsRY1RRguhGUHLW1-43" style="edgeStyle=orthogonalEdgeStyle;rounded=0;orthogonalLoop=1;jettySize=auto;html=1;entryX=1;entryY=0.5;entryDx=0;entryDy=0;fontFamily=Gloria Hallelujah;fontSource=https%3A%2F%2Ffonts.googleapis.com%2Fcss%3Ffamily%3DGloria%2BHallelujah;fontSize=16;fontColor=default;fontStyle=0;flowAnimation=1;strokeWidth=2;" parent="1" source="yu8ccsRY1RRguhGUHLW1-44" target="yu8ccsRY1RRguhGUHLW1-41" edge="1">
          <mxGeometry relative="1" as="geometry" />
        </mxCell>
        <mxCell id="yu8ccsRY1RRguhGUHLW1-44" value="Hypervisor&lt;div&gt;Manager&lt;/div&gt;" style="rounded=1;whiteSpace=wrap;html=1;sketch=1;curveFitting=1;jiggle=2;fontFamily=Gloria Hallelujah;fontSource=https%3A%2F%2Ffonts.googleapis.com%2Fcss%3Ffamily%3DGloria%2BHallelujah;fontSize=16;arcSize=24;verticalAlign=middle;fillColor=#fff2cc;gradientColor=#ffd966;strokeColor=#d6b656;" parent="1" vertex="1">
          <mxGeometry x="440" y="1050" width="120" height="80" as="geometry" />
        </mxCell>
        <mxCell id="yu8ccsRY1RRguhGUHLW1-45" value="Pod" style="rounded=1;whiteSpace=wrap;html=1;sketch=1;curveFitting=1;jiggle=2;fontFamily=Gloria Hallelujah;fontSource=https%3A%2F%2Ffonts.googleapis.com%2Fcss%3Ffamily%3DGloria%2BHallelujah;fontSize=16;arcSize=12;verticalAlign=bottom;" parent="1" vertex="1">
          <mxGeometry x="130" y="730" width="100" height="100" as="geometry" />
        </mxCell>
        <mxCell id="yu8ccsRY1RRguhGUHLW1-47" value="APP" style="rounded=1;whiteSpace=wrap;html=1;sketch=1;curveFitting=1;jiggle=2;fontFamily=Gloria Hallelujah;fontSource=https%3A%2F%2Ffonts.googleapis.com%2Fcss%3Ffamily%3DGloria%2BHallelujah;fontSize=16;arcSize=12;verticalAlign=middle;" parent="1" vertex="1">
          <mxGeometry x="145" y="750" width="70" height="40" as="geometry" />
        </mxCell>
        <mxCell id="yu8ccsRY1RRguhGUHLW1-48" value="Pod" style="rounded=1;whiteSpace=wrap;html=1;sketch=1;curveFitting=1;jiggle=2;fontFamily=Gloria Hallelujah;fontSource=https%3A%2F%2Ffonts.googleapis.com%2Fcss%3Ffamily%3DGloria%2BHallelujah;fontSize=16;arcSize=12;verticalAlign=bottom;fillColor=#ffcd28;gradientColor=#ffa500;strokeColor=#d79b00;" parent="1" vertex="1">
          <mxGeometry x="130" y="850" width="100" height="100" as="geometry" />
        </mxCell>
        <mxCell id="yu8ccsRY1RRguhGUHLW1-49" value="APP" style="rounded=1;whiteSpace=wrap;html=1;sketch=1;curveFitting=1;jiggle=2;fontFamily=Gloria Hallelujah;fontSource=https%3A%2F%2Ffonts.googleapis.com%2Fcss%3Ffamily%3DGloria%2BHallelujah;fontSize=16;arcSize=12;verticalAlign=middle;fillColor=#f8cecc;gradientColor=#ea6b66;strokeColor=#b85450;" parent="1" vertex="1">
          <mxGeometry x="145" y="870" width="70" height="40" as="geometry" />
        </mxCell>
        <mxCell id="yu8ccsRY1RRguhGUHLW1-50" value="Pod" style="rounded=1;whiteSpace=wrap;html=1;sketch=1;curveFitting=1;jiggle=2;fontFamily=Gloria Hallelujah;fontSource=https%3A%2F%2Ffonts.googleapis.com%2Fcss%3Ffamily%3DGloria%2BHallelujah;fontSize=16;arcSize=12;verticalAlign=bottom;" parent="1" vertex="1">
          <mxGeometry x="130" y="610" width="100" height="100" as="geometry" />
        </mxCell>
        <mxCell id="yu8ccsRY1RRguhGUHLW1-51" value="APP" style="rounded=1;whiteSpace=wrap;html=1;sketch=1;curveFitting=1;jiggle=2;fontFamily=Gloria Hallelujah;fontSource=https%3A%2F%2Ffonts.googleapis.com%2Fcss%3Ffamily%3DGloria%2BHallelujah;fontSize=16;arcSize=12;verticalAlign=middle;" parent="1" vertex="1">
          <mxGeometry x="145" y="630" width="70" height="40" as="geometry" />
        </mxCell>
        <mxCell id="yu8ccsRY1RRguhGUHLW1-84" style="edgeStyle=orthogonalEdgeStyle;shape=connector;rounded=0;orthogonalLoop=1;jettySize=auto;html=1;exitX=0;exitY=0.5;exitDx=0;exitDy=0;strokeColor=default;strokeWidth=2;align=center;verticalAlign=middle;fontFamily=Gloria Hallelujah;fontSource=https%3A%2F%2Ffonts.googleapis.com%2Fcss%3Ffamily%3DGloria%2BHallelujah;fontSize=16;fontColor=default;fontStyle=0;labelBackgroundColor=default;endArrow=classic;flowAnimation=1;" parent="1" source="yu8ccsRY1RRguhGUHLW1-52" target="yu8ccsRY1RRguhGUHLW1-36" edge="1">
          <mxGeometry relative="1" as="geometry" />
        </mxCell>
        <mxCell id="yu8ccsRY1RRguhGUHLW1-52" value="k8s&lt;div&gt;Master&lt;br&gt;&lt;/div&gt;" style="rounded=1;whiteSpace=wrap;html=1;sketch=1;curveFitting=1;jiggle=2;fontFamily=Gloria Hallelujah;fontSource=https%3A%2F%2Ffonts.googleapis.com%2Fcss%3Ffamily%3DGloria%2BHallelujah;fontSize=16;arcSize=24;verticalAlign=bottom;fillColor=#fff2cc;gradientColor=#ffd966;strokeColor=#d6b656;" parent="1" vertex="1">
          <mxGeometry x="305" y="740" width="120" height="250" as="geometry" />
        </mxCell>
        <mxCell id="yu8ccsRY1RRguhGUHLW1-53" value="Internal&lt;div&gt;DNS&lt;/div&gt;" style="rounded=1;whiteSpace=wrap;html=1;sketch=1;curveFitting=1;jiggle=2;fontFamily=Gloria Hallelujah;fontSource=https%3A%2F%2Ffonts.googleapis.com%2Fcss%3Ffamily%3DGloria%2BHallelujah;fontSize=16;arcSize=12;verticalAlign=middle;" parent="1" vertex="1">
          <mxGeometry x="320" y="770" width="90" height="60" as="geometry" />
        </mxCell>
        <mxCell id="yu8ccsRY1RRguhGUHLW1-54" value="API" style="rounded=1;whiteSpace=wrap;html=1;sketch=1;curveFitting=1;jiggle=2;fontFamily=Gloria Hallelujah;fontSource=https%3A%2F%2Ffonts.googleapis.com%2Fcss%3Ffamily%3DGloria%2BHallelujah;fontSize=16;arcSize=12;verticalAlign=middle;" parent="1" vertex="1">
          <mxGeometry x="320" y="850" width="90" height="60" as="geometry" />
        </mxCell>
        <mxCell id="yu8ccsRY1RRguhGUHLW1-55" value="Optional" style="shape=curlyBracket;whiteSpace=wrap;html=1;rounded=1;labelPosition=left;verticalLabelPosition=middle;align=right;verticalAlign=middle;sketch=1;jiggle=2;curveFitting=1;strokeColor=default;arcSize=12;fontFamily=Gloria Hallelujah;fontSource=https%3A%2F%2Ffonts.googleapis.com%2Fcss%3Ffamily%3DGloria%2BHallelujah;fontSize=16;fontColor=default;fillColor=default;" parent="1" vertex="1">
          <mxGeometry x="60" y="1030" width="20" height="120" as="geometry" />
        </mxCell>
        <mxCell id="yu8ccsRY1RRguhGUHLW1-56" value="OS&lt;br&gt;(k8s node)" style="rounded=1;whiteSpace=wrap;html=1;sketch=1;curveFitting=1;jiggle=2;fontFamily=Gloria Hallelujah;fontSource=https%3A%2F%2Ffonts.googleapis.com%2Fcss%3Ffamily%3DGloria%2BHallelujah;fontSize=16;arcSize=12;verticalAlign=bottom;fillColor=#fff2cc;gradientColor=#ffd966;strokeColor=#d6b656;" parent="1" vertex="1">
          <mxGeometry x="875" y="580" width="140" height="430" as="geometry" />
        </mxCell>
        <mxCell id="yu8ccsRY1RRguhGUHLW1-57" value="DNS" style="rounded=1;whiteSpace=wrap;html=1;sketch=1;curveFitting=1;jiggle=2;fontFamily=Gloria Hallelujah;fontSource=https%3A%2F%2Ffonts.googleapis.com%2Fcss%3Ffamily%3DGloria%2BHallelujah;fontSize=16;arcSize=12;verticalAlign=middle;" parent="1" vertex="1">
          <mxGeometry x="1270" y="575" width="90" height="60" as="geometry" />
        </mxCell>
        <mxCell id="yu8ccsRY1RRguhGUHLW1-58" value="IAM" style="rounded=1;whiteSpace=wrap;html=1;sketch=1;curveFitting=1;jiggle=2;fontFamily=Gloria Hallelujah;fontSource=https%3A%2F%2Ffonts.googleapis.com%2Fcss%3Ffamily%3DGloria%2BHallelujah;fontSize=16;arcSize=12;verticalAlign=middle;fillColor=#fff2cc;gradientColor=#ffd966;strokeColor=#d6b656;" parent="1" vertex="1">
          <mxGeometry x="1270" y="645" width="90" height="60" as="geometry" />
        </mxCell>
        <mxCell id="yu8ccsRY1RRguhGUHLW1-59" value="Hypervisor" style="rounded=1;whiteSpace=wrap;html=1;sketch=1;curveFitting=1;jiggle=2;fontFamily=Gloria Hallelujah;fontSource=https%3A%2F%2Ffonts.googleapis.com%2Fcss%3Ffamily%3DGloria%2BHallelujah;fontSize=16;arcSize=24;verticalAlign=middle;fillColor=#f5f5f5;gradientColor=#b3b3b3;strokeColor=#666666;" parent="1" vertex="1">
          <mxGeometry x="875" y="1040" width="280" height="80" as="geometry" />
        </mxCell>
        <mxCell id="yu8ccsRY1RRguhGUHLW1-60" value="Bare Metal" style="rounded=1;whiteSpace=wrap;html=1;sketch=1;curveFitting=1;jiggle=2;fontFamily=Gloria Hallelujah;fontSource=https%3A%2F%2Ffonts.googleapis.com%2Fcss%3Ffamily%3DGloria%2BHallelujah;fontSize=16;arcSize=24;verticalAlign=middle;fillColor=#f5f5f5;gradientColor=#b3b3b3;strokeColor=#666666;" parent="1" vertex="1">
          <mxGeometry x="875" y="1140" width="280" height="80" as="geometry" />
        </mxCell>
        <mxCell id="yu8ccsRY1RRguhGUHLW1-62" value="Hypervisor&lt;div&gt;Manager&lt;/div&gt;" style="rounded=1;whiteSpace=wrap;html=1;sketch=1;curveFitting=1;jiggle=2;fontFamily=Gloria Hallelujah;fontSource=https%3A%2F%2Ffonts.googleapis.com%2Fcss%3Ffamily%3DGloria%2BHallelujah;fontSize=16;arcSize=24;verticalAlign=middle;fillColor=#f5f5f5;gradientColor=#b3b3b3;strokeColor=#666666;" parent="1" vertex="1">
          <mxGeometry x="1205" y="1040" width="120" height="80" as="geometry" />
        </mxCell>
        <mxCell id="yu8ccsRY1RRguhGUHLW1-63" value="Pod" style="rounded=1;whiteSpace=wrap;html=1;sketch=1;curveFitting=1;jiggle=2;fontFamily=Gloria Hallelujah;fontSource=https%3A%2F%2Ffonts.googleapis.com%2Fcss%3Ffamily%3DGloria%2BHallelujah;fontSize=16;arcSize=12;verticalAlign=bottom;" parent="1" vertex="1">
          <mxGeometry x="895" y="720" width="100" height="100" as="geometry" />
        </mxCell>
        <mxCell id="yu8ccsRY1RRguhGUHLW1-64" value="APP" style="rounded=1;whiteSpace=wrap;html=1;sketch=1;curveFitting=1;jiggle=2;fontFamily=Gloria Hallelujah;fontSource=https%3A%2F%2Ffonts.googleapis.com%2Fcss%3Ffamily%3DGloria%2BHallelujah;fontSize=16;arcSize=12;verticalAlign=middle;" parent="1" vertex="1">
          <mxGeometry x="910" y="740" width="70" height="40" as="geometry" />
        </mxCell>
        <mxCell id="yu8ccsRY1RRguhGUHLW1-65" value="Pod" style="rounded=1;whiteSpace=wrap;html=1;sketch=1;curveFitting=1;jiggle=2;fontFamily=Gloria Hallelujah;fontSource=https%3A%2F%2Ffonts.googleapis.com%2Fcss%3Ffamily%3DGloria%2BHallelujah;fontSize=16;arcSize=12;verticalAlign=bottom;fillColor=#ffcd28;gradientColor=#ffa500;strokeColor=#d79b00;" parent="1" vertex="1">
          <mxGeometry x="895" y="840" width="100" height="100" as="geometry" />
        </mxCell>
        <mxCell id="yu8ccsRY1RRguhGUHLW1-66" value="APP" style="rounded=1;whiteSpace=wrap;html=1;sketch=1;curveFitting=1;jiggle=2;fontFamily=Gloria Hallelujah;fontSource=https%3A%2F%2Ffonts.googleapis.com%2Fcss%3Ffamily%3DGloria%2BHallelujah;fontSize=16;arcSize=12;verticalAlign=middle;fillColor=#f8cecc;gradientColor=#ea6b66;strokeColor=#b85450;" parent="1" vertex="1">
          <mxGeometry x="910" y="860" width="70" height="40" as="geometry" />
        </mxCell>
        <mxCell id="yu8ccsRY1RRguhGUHLW1-67" value="Pod" style="rounded=1;whiteSpace=wrap;html=1;sketch=1;curveFitting=1;jiggle=2;fontFamily=Gloria Hallelujah;fontSource=https%3A%2F%2Ffonts.googleapis.com%2Fcss%3Ffamily%3DGloria%2BHallelujah;fontSize=16;arcSize=12;verticalAlign=bottom;" parent="1" vertex="1">
          <mxGeometry x="895" y="600" width="100" height="100" as="geometry" />
        </mxCell>
        <mxCell id="yu8ccsRY1RRguhGUHLW1-68" value="APP" style="rounded=1;whiteSpace=wrap;html=1;sketch=1;curveFitting=1;jiggle=2;fontFamily=Gloria Hallelujah;fontSource=https%3A%2F%2Ffonts.googleapis.com%2Fcss%3Ffamily%3DGloria%2BHallelujah;fontSize=16;arcSize=12;verticalAlign=middle;" parent="1" vertex="1">
          <mxGeometry x="910" y="620" width="70" height="40" as="geometry" />
        </mxCell>
        <mxCell id="yu8ccsRY1RRguhGUHLW1-69" value="k8s&lt;div&gt;Master&lt;br&gt;&lt;/div&gt;" style="rounded=1;whiteSpace=wrap;html=1;sketch=1;curveFitting=1;jiggle=2;fontFamily=Gloria Hallelujah;fontSource=https%3A%2F%2Ffonts.googleapis.com%2Fcss%3Ffamily%3DGloria%2BHallelujah;fontSize=16;arcSize=24;verticalAlign=bottom;fillColor=#fff2cc;gradientColor=#ffd966;strokeColor=#d6b656;" parent="1" vertex="1">
          <mxGeometry x="1070" y="730" width="120" height="250" as="geometry" />
        </mxCell>
        <mxCell id="yu8ccsRY1RRguhGUHLW1-70" value="Internal&lt;div&gt;DNS&lt;/div&gt;" style="rounded=1;whiteSpace=wrap;html=1;sketch=1;curveFitting=1;jiggle=2;fontFamily=Gloria Hallelujah;fontSource=https%3A%2F%2Ffonts.googleapis.com%2Fcss%3Ffamily%3DGloria%2BHallelujah;fontSize=16;arcSize=12;verticalAlign=middle;" parent="1" vertex="1">
          <mxGeometry x="1085" y="760" width="90" height="60" as="geometry" />
        </mxCell>
        <mxCell id="yu8ccsRY1RRguhGUHLW1-71" value="API" style="rounded=1;whiteSpace=wrap;html=1;sketch=1;curveFitting=1;jiggle=2;fontFamily=Gloria Hallelujah;fontSource=https%3A%2F%2Ffonts.googleapis.com%2Fcss%3Ffamily%3DGloria%2BHallelujah;fontSize=16;arcSize=12;verticalAlign=middle;" parent="1" vertex="1">
          <mxGeometry x="1085" y="840" width="90" height="60" as="geometry" />
        </mxCell>
        <mxCell id="yu8ccsRY1RRguhGUHLW1-72" value="Cloud Provider Assets" style="shape=curlyBracket;whiteSpace=wrap;html=1;rounded=1;labelPosition=left;verticalLabelPosition=middle;align=right;verticalAlign=middle;sketch=1;jiggle=2;curveFitting=1;strokeColor=default;arcSize=12;fontFamily=Gloria Hallelujah;fontSource=https%3A%2F%2Ffonts.googleapis.com%2Fcss%3Ffamily%3DGloria%2BHallelujah;fontSize=16;fontColor=default;fillColor=default;" parent="1" vertex="1">
          <mxGeometry x="825" y="1020" width="20" height="190" as="geometry" />
        </mxCell>
        <mxCell id="yu8ccsRY1RRguhGUHLW1-73" value="Cloud Services" style="rounded=1;whiteSpace=wrap;html=1;sketch=1;curveFitting=1;jiggle=2;fontFamily=Gloria Hallelujah;fontSource=https%3A%2F%2Ffonts.googleapis.com%2Fcss%3Ffamily%3DGloria%2BHallelujah;fontSize=16;arcSize=12;verticalAlign=middle;" parent="1" vertex="1">
          <mxGeometry x="1050" y="580" width="90" height="60" as="geometry" />
        </mxCell>
        <mxCell id="yu8ccsRY1RRguhGUHLW1-74" value="Cloud Services" style="rounded=1;whiteSpace=wrap;html=1;sketch=1;curveFitting=1;jiggle=2;fontFamily=Gloria Hallelujah;fontSource=https%3A%2F%2Ffonts.googleapis.com%2Fcss%3Ffamily%3DGloria%2BHallelujah;fontSize=16;arcSize=12;verticalAlign=middle;" parent="1" vertex="1">
          <mxGeometry x="1060" y="590" width="90" height="60" as="geometry" />
        </mxCell>
        <mxCell id="yu8ccsRY1RRguhGUHLW1-75" value="Cloud Services" style="rounded=1;whiteSpace=wrap;html=1;sketch=1;curveFitting=1;jiggle=2;fontFamily=Gloria Hallelujah;fontSource=https%3A%2F%2Ffonts.googleapis.com%2Fcss%3Ffamily%3DGloria%2BHallelujah;fontSize=16;arcSize=12;verticalAlign=middle;" parent="1" vertex="1">
          <mxGeometry x="1070" y="600" width="90" height="60" as="geometry" />
        </mxCell>
        <mxCell id="yu8ccsRY1RRguhGUHLW1-76" value="Cloud Services" style="rounded=1;whiteSpace=wrap;html=1;sketch=1;curveFitting=1;jiggle=2;fontFamily=Gloria Hallelujah;fontSource=https%3A%2F%2Ffonts.googleapis.com%2Fcss%3Ffamily%3DGloria%2BHallelujah;fontSize=16;arcSize=12;verticalAlign=middle;" parent="1" vertex="1">
          <mxGeometry x="1080" y="610" width="90" height="60" as="geometry" />
        </mxCell>
        <mxCell id="yu8ccsRY1RRguhGUHLW1-77" value="Cloud Services" style="rounded=1;whiteSpace=wrap;html=1;sketch=1;curveFitting=1;jiggle=2;fontFamily=Gloria Hallelujah;fontSource=https%3A%2F%2Ffonts.googleapis.com%2Fcss%3Ffamily%3DGloria%2BHallelujah;fontSize=16;arcSize=12;verticalAlign=middle;" parent="1" vertex="1">
          <mxGeometry x="1090" y="620" width="90" height="60" as="geometry" />
        </mxCell>
        <mxCell id="yu8ccsRY1RRguhGUHLW1-78" value="Cloud Services" style="rounded=1;whiteSpace=wrap;html=1;sketch=1;curveFitting=1;jiggle=2;fontFamily=Gloria Hallelujah;fontSource=https%3A%2F%2Ffonts.googleapis.com%2Fcss%3Ffamily%3DGloria%2BHallelujah;fontSize=16;arcSize=12;verticalAlign=middle;" parent="1" vertex="1">
          <mxGeometry x="1100" y="630" width="90" height="60" as="geometry" />
        </mxCell>
        <mxCell id="yu8ccsRY1RRguhGUHLW1-92" style="edgeStyle=orthogonalEdgeStyle;shape=connector;rounded=0;orthogonalLoop=1;jettySize=auto;html=1;exitX=0;exitY=0.25;exitDx=0;exitDy=0;entryX=0;entryY=0.5;entryDx=0;entryDy=0;strokeColor=default;strokeWidth=2;align=center;verticalAlign=middle;fontFamily=Gloria Hallelujah;fontSource=https%3A%2F%2Ffonts.googleapis.com%2Fcss%3Ffamily%3DGloria%2BHallelujah;fontSize=16;fontColor=default;fontStyle=0;labelBackgroundColor=default;endArrow=classic;flowAnimation=1;" parent="1" source="yu8ccsRY1RRguhGUHLW1-79" target="yu8ccsRY1RRguhGUHLW1-58" edge="1">
          <mxGeometry relative="1" as="geometry" />
        </mxCell>
        <mxCell id="yu8ccsRY1RRguhGUHLW1-93" style="edgeStyle=orthogonalEdgeStyle;shape=connector;rounded=0;orthogonalLoop=1;jettySize=auto;html=1;exitX=0;exitY=0.5;exitDx=0;exitDy=0;entryX=1;entryY=0.5;entryDx=0;entryDy=0;strokeColor=default;strokeWidth=2;align=center;verticalAlign=middle;fontFamily=Gloria Hallelujah;fontSource=https%3A%2F%2Ffonts.googleapis.com%2Fcss%3Ffamily%3DGloria%2BHallelujah;fontSize=16;fontColor=default;fontStyle=0;labelBackgroundColor=default;endArrow=classic;flowAnimation=1;" parent="1" source="yu8ccsRY1RRguhGUHLW1-79" target="yu8ccsRY1RRguhGUHLW1-78" edge="1">
          <mxGeometry relative="1" as="geometry" />
        </mxCell>
        <mxCell id="yu8ccsRY1RRguhGUHLW1-94" style="edgeStyle=orthogonalEdgeStyle;shape=connector;rounded=0;orthogonalLoop=1;jettySize=auto;html=1;exitX=1;exitY=0.25;exitDx=0;exitDy=0;entryX=1;entryY=0.5;entryDx=0;entryDy=0;strokeColor=default;strokeWidth=2;align=center;verticalAlign=middle;fontFamily=Gloria Hallelujah;fontSource=https%3A%2F%2Ffonts.googleapis.com%2Fcss%3Ffamily%3DGloria%2BHallelujah;fontSize=16;fontColor=default;fontStyle=0;labelBackgroundColor=default;endArrow=classic;flowAnimation=1;" parent="1" source="yu8ccsRY1RRguhGUHLW1-79" target="yu8ccsRY1RRguhGUHLW1-57" edge="1">
          <mxGeometry relative="1" as="geometry" />
        </mxCell>
        <mxCell id="yu8ccsRY1RRguhGUHLW1-96" style="edgeStyle=orthogonalEdgeStyle;shape=connector;rounded=0;orthogonalLoop=1;jettySize=auto;html=1;exitX=0;exitY=0.75;exitDx=0;exitDy=0;entryX=1;entryY=0.5;entryDx=0;entryDy=0;strokeColor=default;strokeWidth=2;align=center;verticalAlign=middle;fontFamily=Gloria Hallelujah;fontSource=https%3A%2F%2Ffonts.googleapis.com%2Fcss%3Ffamily%3DGloria%2BHallelujah;fontSize=16;fontColor=default;fontStyle=0;labelBackgroundColor=default;endArrow=classic;flowAnimation=1;" parent="1" source="yu8ccsRY1RRguhGUHLW1-79" target="yu8ccsRY1RRguhGUHLW1-69" edge="1">
          <mxGeometry relative="1" as="geometry" />
        </mxCell>
        <mxCell id="yu8ccsRY1RRguhGUHLW1-97" style="edgeStyle=orthogonalEdgeStyle;shape=connector;rounded=0;orthogonalLoop=1;jettySize=auto;html=1;exitX=1;exitY=0.75;exitDx=0;exitDy=0;entryX=1;entryY=0.25;entryDx=0;entryDy=0;strokeColor=default;strokeWidth=2;align=center;verticalAlign=middle;fontFamily=Gloria Hallelujah;fontSource=https%3A%2F%2Ffonts.googleapis.com%2Fcss%3Ffamily%3DGloria%2BHallelujah;fontSize=16;fontColor=default;fontStyle=0;labelBackgroundColor=default;endArrow=classic;flowAnimation=1;" parent="1" source="yu8ccsRY1RRguhGUHLW1-79" target="yu8ccsRY1RRguhGUHLW1-87" edge="1">
          <mxGeometry relative="1" as="geometry" />
        </mxCell>
        <mxCell id="yu8ccsRY1RRguhGUHLW1-98" style="edgeStyle=orthogonalEdgeStyle;shape=connector;rounded=0;orthogonalLoop=1;jettySize=auto;html=1;exitX=1;exitY=0.5;exitDx=0;exitDy=0;entryX=1;entryY=0.25;entryDx=0;entryDy=0;strokeColor=default;strokeWidth=2;align=center;verticalAlign=middle;fontFamily=Gloria Hallelujah;fontSource=https%3A%2F%2Ffonts.googleapis.com%2Fcss%3Ffamily%3DGloria%2BHallelujah;fontSize=16;fontColor=default;fontStyle=0;labelBackgroundColor=default;endArrow=classic;flowAnimation=1;" parent="1" source="yu8ccsRY1RRguhGUHLW1-79" target="yu8ccsRY1RRguhGUHLW1-81" edge="1">
          <mxGeometry relative="1" as="geometry" />
        </mxCell>
        <mxCell id="yu8ccsRY1RRguhGUHLW1-79" value="Public Cloud&lt;div&gt;API&lt;/div&gt;" style="rounded=1;whiteSpace=wrap;html=1;sketch=1;curveFitting=1;jiggle=2;fontFamily=Gloria Hallelujah;fontSource=https%3A%2F%2Ffonts.googleapis.com%2Fcss%3Ffamily%3DGloria%2BHallelujah;fontSize=16;arcSize=12;verticalAlign=middle;fillColor=#fff2cc;gradientColor=#ffd966;strokeColor=#d6b656;" parent="1" vertex="1">
          <mxGeometry x="1270" y="715" width="90" height="60" as="geometry" />
        </mxCell>
        <mxCell id="yu8ccsRY1RRguhGUHLW1-81" value="VPC" style="rounded=1;whiteSpace=wrap;html=1;sketch=1;curveFitting=1;jiggle=2;fontFamily=Gloria Hallelujah;fontSource=https%3A%2F%2Ffonts.googleapis.com%2Fcss%3Ffamily%3DGloria%2BHallelujah;fontSize=16;arcSize=12;verticalAlign=middle;fillColor=#fff2cc;gradientColor=#ffd966;strokeColor=#d6b656;" parent="1" vertex="1">
          <mxGeometry x="1270" y="785" width="90" height="60" as="geometry" />
        </mxCell>
        <mxCell id="yu8ccsRY1RRguhGUHLW1-87" value="CI/CD&lt;div&gt;Pipelines&lt;/div&gt;" style="rounded=1;whiteSpace=wrap;html=1;sketch=1;curveFitting=1;jiggle=2;fontFamily=Gloria Hallelujah;fontSource=https%3A%2F%2Ffonts.googleapis.com%2Fcss%3Ffamily%3DGloria%2BHallelujah;fontSize=16;arcSize=24;verticalAlign=middle;" parent="1" vertex="1">
          <mxGeometry x="1255" y="860" width="120" height="80" as="geometry" />
        </mxCell>
        <mxCell id="yu8ccsRY1RRguhGUHLW1-88" value="Backstage" style="rounded=1;whiteSpace=wrap;html=1;sketch=1;curveFitting=1;jiggle=2;fontFamily=Gloria Hallelujah;fontSource=https%3A%2F%2Ffonts.googleapis.com%2Fcss%3Ffamily%3DGloria%2BHallelujah;fontSize=16;arcSize=24;verticalAlign=middle;" parent="1" vertex="1">
          <mxGeometry x="1255" y="950" width="120" height="50" as="geometry" />
        </mxCell>
        <mxCell id="yu8ccsRY1RRguhGUHLW1-99" value="" style="endArrow=none;html=1;rounded=0;strokeColor=default;strokeWidth=2;align=center;verticalAlign=middle;fontFamily=Gloria Hallelujah;fontSource=https%3A%2F%2Ffonts.googleapis.com%2Fcss%3Ffamily%3DGloria%2BHallelujah;fontSize=16;fontColor=default;fontStyle=0;labelBackgroundColor=default;edgeStyle=orthogonalEdgeStyle;flowAnimation=1;" parent="1" edge="1">
          <mxGeometry width="50" height="50" relative="1" as="geometry">
            <mxPoint x="20" y="500" as="sourcePoint" />
            <mxPoint x="1420" y="501" as="targetPoint" />
          </mxGeometry>
        </mxCell>
        <mxCell id="yu8ccsRY1RRguhGUHLW1-100" value="" style="endArrow=none;html=1;rounded=0;strokeColor=default;strokeWidth=2;align=center;verticalAlign=middle;fontFamily=Gloria Hallelujah;fontSource=https%3A%2F%2Ffonts.googleapis.com%2Fcss%3Ffamily%3DGloria%2BHallelujah;fontSize=16;fontColor=default;fontStyle=0;labelBackgroundColor=default;edgeStyle=orthogonalEdgeStyle;flowAnimation=1;" parent="1" edge="1">
          <mxGeometry width="50" height="50" relative="1" as="geometry">
            <mxPoint x="690" y="1250" as="sourcePoint" />
            <mxPoint x="690" y="-80" as="targetPoint" />
          </mxGeometry>
        </mxCell>
        <mxCell id="yu8ccsRY1RRguhGUHLW1-102" value="Easy" style="text;html=1;align=center;verticalAlign=middle;whiteSpace=wrap;rounded=0;fontFamily=Gloria Hallelujah;fontSource=https%3A%2F%2Ffonts.googleapis.com%2Fcss%3Ffamily%3DGloria%2BHallelujah;fontSize=24;fontColor=default;fontStyle=0;labelBackgroundColor=default;" parent="1" vertex="1">
          <mxGeometry x="215" y="436" width="245" height="30" as="geometry" />
        </mxCell>
        <mxCell id="yu8ccsRY1RRguhGUHLW1-104" value="Normal" style="text;html=1;align=center;verticalAlign=middle;whiteSpace=wrap;rounded=0;fontFamily=Gloria Hallelujah;fontSource=https%3A%2F%2Ffonts.googleapis.com%2Fcss%3Ffamily%3DGloria%2BHallelujah;fontSize=24;fontColor=default;fontStyle=0;labelBackgroundColor=default;" parent="1" vertex="1">
          <mxGeometry x="952.5" y="436" width="245" height="30" as="geometry" />
        </mxCell>
        <mxCell id="yu8ccsRY1RRguhGUHLW1-105" value="Intermediate" style="text;html=1;align=center;verticalAlign=middle;whiteSpace=wrap;rounded=0;fontFamily=Gloria Hallelujah;fontSource=https%3A%2F%2Ffonts.googleapis.com%2Fcss%3Ffamily%3DGloria%2BHallelujah;fontSize=24;fontColor=default;fontStyle=0;labelBackgroundColor=default;" parent="1" vertex="1">
          <mxGeometry x="222.5" y="1250" width="245" height="30" as="geometry" />
        </mxCell>
        <mxCell id="yu8ccsRY1RRguhGUHLW1-106" value="Advance" style="text;html=1;align=center;verticalAlign=middle;whiteSpace=wrap;rounded=0;fontFamily=Gloria Hallelujah;fontSource=https%3A%2F%2Ffonts.googleapis.com%2Fcss%3Ffamily%3DGloria%2BHallelujah;fontSize=24;fontColor=default;fontStyle=0;labelBackgroundColor=default;" parent="1" vertex="1">
          <mxGeometry x="960" y="1250" width="245" height="30" as="geometry" />
        </mxCell>
        <mxCell id="yu8ccsRY1RRguhGUHLW1-110" style="edgeStyle=orthogonalEdgeStyle;shape=connector;rounded=0;orthogonalLoop=1;jettySize=auto;html=1;strokeColor=default;strokeWidth=2;align=center;verticalAlign=middle;fontFamily=Gloria Hallelujah;fontSource=https%3A%2F%2Ffonts.googleapis.com%2Fcss%3Ffamily%3DGloria%2BHallelujah;fontSize=16;fontColor=default;fontStyle=0;labelBackgroundColor=default;endArrow=classic;flowAnimation=1;" parent="1" source="yu8ccsRY1RRguhGUHLW1-109" target="yu8ccsRY1RRguhGUHLW1-27" edge="1">
          <mxGeometry relative="1" as="geometry" />
        </mxCell>
        <mxCell id="yu8ccsRY1RRguhGUHLW1-109" value="Management&lt;div&gt;Interface&lt;/div&gt;" style="rounded=1;whiteSpace=wrap;html=1;sketch=1;curveFitting=1;jiggle=2;fontFamily=Gloria Hallelujah;fontSource=https%3A%2F%2Ffonts.googleapis.com%2Fcss%3Ffamily%3DGloria%2BHallelujah;fontSize=16;arcSize=24;verticalAlign=middle;fillColor=#fff2cc;gradientColor=#ffd966;strokeColor=#d6b656;" parent="1" vertex="1">
          <mxGeometry x="-20" y="270" width="120" height="80" as="geometry" />
        </mxCell>
        <mxCell id="yu8ccsRY1RRguhGUHLW1-116" style="edgeStyle=orthogonalEdgeStyle;shape=connector;rounded=0;orthogonalLoop=1;jettySize=auto;html=1;entryX=1;entryY=0.5;entryDx=0;entryDy=0;strokeColor=default;strokeWidth=2;align=center;verticalAlign=middle;fontFamily=Gloria Hallelujah;fontSource=https%3A%2F%2Ffonts.googleapis.com%2Fcss%3Ffamily%3DGloria%2BHallelujah;fontSize=16;fontColor=default;fontStyle=0;labelBackgroundColor=default;endArrow=classic;flowAnimation=1;" parent="1" source="yu8ccsRY1RRguhGUHLW1-114" target="yu8ccsRY1RRguhGUHLW1-52" edge="1">
          <mxGeometry relative="1" as="geometry" />
        </mxCell>
        <mxCell id="yu8ccsRY1RRguhGUHLW1-114" value="CI/CD&lt;div&gt;Pipelines&lt;/div&gt;" style="rounded=1;whiteSpace=wrap;html=1;sketch=1;curveFitting=1;jiggle=2;fontFamily=Gloria Hallelujah;fontSource=https%3A%2F%2Ffonts.googleapis.com%2Fcss%3Ffamily%3DGloria%2BHallelujah;fontSize=16;arcSize=24;verticalAlign=middle;" parent="1" vertex="1">
          <mxGeometry x="480" y="825" width="120" height="80" as="geometry" />
        </mxCell>
        <mxCell id="yu8ccsRY1RRguhGUHLW1-120" value="APP" style="rounded=1;whiteSpace=wrap;html=1;sketch=1;curveFitting=1;jiggle=2;fontFamily=Gloria Hallelujah;fontSource=https%3A%2F%2Ffonts.googleapis.com%2Fcss%3Ffamily%3DGloria%2BHallelujah;fontSize=16;arcSize=12;verticalAlign=middle;fillColor=#f8cecc;gradientColor=#ea6b66;strokeColor=#b85450;" parent="1" vertex="1">
          <mxGeometry x="200" y="120" width="70" height="40" as="geometry" />
        </mxCell>
        <mxCell id="yu8ccsRY1RRguhGUHLW1-121" value="APP" style="rounded=1;whiteSpace=wrap;html=1;sketch=1;curveFitting=1;jiggle=2;fontFamily=Gloria Hallelujah;fontSource=https%3A%2F%2Ffonts.googleapis.com%2Fcss%3Ffamily%3DGloria%2BHallelujah;fontSize=16;arcSize=12;verticalAlign=middle;fillColor=#f8cecc;gradientColor=#ea6b66;strokeColor=#b85450;" parent="1" vertex="1">
          <mxGeometry x="210" y="130" width="70" height="40" as="geometry" />
        </mxCell>
        <mxCell id="yu8ccsRY1RRguhGUHLW1-122" value="APP" style="rounded=1;whiteSpace=wrap;html=1;sketch=1;curveFitting=1;jiggle=2;fontFamily=Gloria Hallelujah;fontSource=https%3A%2F%2Ffonts.googleapis.com%2Fcss%3Ffamily%3DGloria%2BHallelujah;fontSize=16;arcSize=12;verticalAlign=middle;fillColor=#f8cecc;gradientColor=#ea6b66;strokeColor=#b85450;" parent="1" vertex="1">
          <mxGeometry x="220" y="140" width="70" height="40" as="geometry" />
        </mxCell>
        <mxCell id="yu8ccsRY1RRguhGUHLW1-123" value="APP" style="rounded=1;whiteSpace=wrap;html=1;sketch=1;curveFitting=1;jiggle=2;fontFamily=Gloria Hallelujah;fontSource=https%3A%2F%2Ffonts.googleapis.com%2Fcss%3Ffamily%3DGloria%2BHallelujah;fontSize=16;arcSize=12;verticalAlign=middle;fillColor=#f8cecc;gradientColor=#ea6b66;strokeColor=#b85450;" parent="1" vertex="1">
          <mxGeometry x="230" y="150" width="70" height="40" as="geometry" />
        </mxCell>
      </root>
    </mxGraphModel>
  </diagram>
</mxfile>
